<mxfile host="app.diagrams.net" modified="2020-10-20T04:41:25.125Z" agent="5.0 (Windows NT 10.0; Win64; x64) AppleWebKit/537.36 (KHTML, like Gecko) Chrome/86.0.4240.75 Safari/537.36" etag="NXjDi7_wnjPwMwDiucLE" version="13.8.0" type="github">
  <diagram id="C5RBs43oDa-KdzZeNtuy" name="Page-1">
    <mxGraphModel dx="1625" dy="724" grid="1" gridSize="10" guides="1" tooltips="1" connect="1" arrows="1" fold="1" page="1" pageScale="1" pageWidth="827" pageHeight="1169" math="0" shadow="0">
      <root>
        <mxCell id="WIyWlLk6GJQsqaUBKTNV-0" />
        <mxCell id="WIyWlLk6GJQsqaUBKTNV-1" parent="WIyWlLk6GJQsqaUBKTNV-0" />
        <mxCell id="qy54ewY4zmLZA6wz8bQR-19" style="edgeStyle=orthogonalEdgeStyle;rounded=0;orthogonalLoop=1;jettySize=auto;html=1;entryX=0.5;entryY=0;entryDx=0;entryDy=0;" edge="1" parent="WIyWlLk6GJQsqaUBKTNV-1" source="qy54ewY4zmLZA6wz8bQR-0" target="qy54ewY4zmLZA6wz8bQR-18">
          <mxGeometry relative="1" as="geometry" />
        </mxCell>
        <mxCell id="qy54ewY4zmLZA6wz8bQR-0" value="Begin Program" style="ellipse;whiteSpace=wrap;html=1;" vertex="1" parent="WIyWlLk6GJQsqaUBKTNV-1">
          <mxGeometry x="110" y="80" width="120" height="50" as="geometry" />
        </mxCell>
        <mxCell id="qy54ewY4zmLZA6wz8bQR-1" value="" style="endArrow=none;html=1;entryX=0.5;entryY=0;entryDx=0;entryDy=0;exitX=0.484;exitY=0.965;exitDx=0;exitDy=0;exitPerimeter=0;" edge="1" parent="WIyWlLk6GJQsqaUBKTNV-1" source="qy54ewY4zmLZA6wz8bQR-2" target="qy54ewY4zmLZA6wz8bQR-9">
          <mxGeometry width="50" height="50" relative="1" as="geometry">
            <mxPoint x="830" y="391" as="sourcePoint" />
            <mxPoint x="880" y="341" as="targetPoint" />
          </mxGeometry>
        </mxCell>
        <mxCell id="qy54ewY4zmLZA6wz8bQR-2" value="" style="rhombus;whiteSpace=wrap;html=1;fillColor=#141414;" vertex="1" parent="WIyWlLk6GJQsqaUBKTNV-1">
          <mxGeometry x="700" y="610" width="20" height="20" as="geometry" />
        </mxCell>
        <mxCell id="qy54ewY4zmLZA6wz8bQR-3" value="" style="endArrow=none;html=1;entryX=0.5;entryY=0;entryDx=0;entryDy=0;exitX=0.484;exitY=0.965;exitDx=0;exitDy=0;exitPerimeter=0;" edge="1" parent="WIyWlLk6GJQsqaUBKTNV-1" source="qy54ewY4zmLZA6wz8bQR-4" target="qy54ewY4zmLZA6wz8bQR-5">
          <mxGeometry width="50" height="50" relative="1" as="geometry">
            <mxPoint x="800" y="405" as="sourcePoint" />
            <mxPoint x="690" y="305" as="targetPoint" />
          </mxGeometry>
        </mxCell>
        <mxCell id="qy54ewY4zmLZA6wz8bQR-4" value="" style="rhombus;whiteSpace=wrap;html=1;fillColor=#141414;" vertex="1" parent="WIyWlLk6GJQsqaUBKTNV-1">
          <mxGeometry x="695" y="278" width="20" height="20" as="geometry" />
        </mxCell>
        <mxCell id="qy54ewY4zmLZA6wz8bQR-9" value="Peg" style="swimlane;fontStyle=1;align=center;verticalAlign=top;childLayout=stackLayout;horizontal=1;startSize=26;horizontalStack=0;resizeParent=1;resizeParentMax=0;resizeLast=0;collapsible=1;marginBottom=0;" vertex="1" parent="WIyWlLk6GJQsqaUBKTNV-1">
          <mxGeometry x="630" y="670" width="160" height="280" as="geometry" />
        </mxCell>
        <mxCell id="qy54ewY4zmLZA6wz8bQR-10" value="+ BLUE: uint8_t&#xa;+ GREEN: uint8_t&#xa;+ YELLOW: uint8_t&#xa;+ ORANGE: uint8_t&#xa;+ RED: uint8_t&#xa;+ WHITE: uint8_t&#xa;- pegColor: uint8_t" style="text;strokeColor=none;fillColor=none;align=left;verticalAlign=top;spacingLeft=4;spacingRight=4;overflow=hidden;rotatable=0;points=[[0,0.5],[1,0.5]];portConstraint=eastwest;" vertex="1" parent="qy54ewY4zmLZA6wz8bQR-9">
          <mxGeometry y="26" width="160" height="114" as="geometry" />
        </mxCell>
        <mxCell id="qy54ewY4zmLZA6wz8bQR-11" value="" style="line;strokeWidth=1;fillColor=none;align=left;verticalAlign=middle;spacingTop=-1;spacingLeft=3;spacingRight=3;rotatable=0;labelPosition=right;points=[];portConstraint=eastwest;" vertex="1" parent="qy54ewY4zmLZA6wz8bQR-9">
          <mxGeometry y="140" width="160" height="8" as="geometry" />
        </mxCell>
        <mxCell id="qy54ewY4zmLZA6wz8bQR-12" value="+ Peg()&#xa;+ Peg(bool)&#xa;+ Peg(int)&#xa;+ clearPeg(): void&#xa;+ getPegColor(): int&#xa;+ getPegAlt(): string&#xa;+ setPegColor(int): void&#xa;- randomizePeg(): void" style="text;strokeColor=none;fillColor=none;align=left;verticalAlign=top;spacingLeft=4;spacingRight=4;overflow=hidden;rotatable=0;points=[[0,0.5],[1,0.5]];portConstraint=eastwest;" vertex="1" parent="qy54ewY4zmLZA6wz8bQR-9">
          <mxGeometry y="148" width="160" height="132" as="geometry" />
        </mxCell>
        <mxCell id="qy54ewY4zmLZA6wz8bQR-13" value="GameBoard" style="swimlane;fontStyle=1;align=center;verticalAlign=top;childLayout=stackLayout;horizontal=1;startSize=26;horizontalStack=0;resizeParent=1;resizeParentMax=0;resizeLast=0;collapsible=1;marginBottom=0;" vertex="1" parent="WIyWlLk6GJQsqaUBKTNV-1">
          <mxGeometry x="615" y="90" width="190" height="188" as="geometry" />
        </mxCell>
        <mxCell id="qy54ewY4zmLZA6wz8bQR-14" value="- boardContents: GameRow[]&#xa;- scoreRow: GameRow&#xa;- attempts: int&#xa;" style="text;strokeColor=none;fillColor=none;align=left;verticalAlign=top;spacingLeft=4;spacingRight=4;overflow=hidden;rotatable=0;points=[[0,0.5],[1,0.5]];portConstraint=eastwest;" vertex="1" parent="qy54ewY4zmLZA6wz8bQR-13">
          <mxGeometry y="26" width="190" height="54" as="geometry" />
        </mxCell>
        <mxCell id="qy54ewY4zmLZA6wz8bQR-15" value="" style="line;strokeWidth=1;fillColor=none;align=left;verticalAlign=middle;spacingTop=-1;spacingLeft=3;spacingRight=3;rotatable=0;labelPosition=right;points=[];portConstraint=eastwest;" vertex="1" parent="qy54ewY4zmLZA6wz8bQR-13">
          <mxGeometry y="80" width="190" height="8" as="geometry" />
        </mxCell>
        <mxCell id="qy54ewY4zmLZA6wz8bQR-16" value="+ GameBoard()&#xa;+ addTurnInformation(int[]): void&#xa;+ getRoundsLeft(): int&#xa;+ resetGame(): void&#xa;+ resetGame(int[]): void&#xa;+ drawGameBoard(): string" style="text;strokeColor=none;fillColor=none;align=left;verticalAlign=top;spacingLeft=4;spacingRight=4;overflow=hidden;rotatable=0;points=[[0,0.5],[1,0.5]];portConstraint=eastwest;" vertex="1" parent="qy54ewY4zmLZA6wz8bQR-13">
          <mxGeometry y="88" width="190" height="100" as="geometry" />
        </mxCell>
        <mxCell id="qy54ewY4zmLZA6wz8bQR-17" value="&lt;h1&gt;UML Class Diagram&lt;/h1&gt;" style="text;html=1;strokeColor=none;fillColor=none;spacing=5;spacingTop=-20;whiteSpace=wrap;overflow=hidden;rounded=0;align=center;" vertex="1" parent="WIyWlLk6GJQsqaUBKTNV-1">
          <mxGeometry x="640" y="10" width="140" height="70" as="geometry" />
        </mxCell>
        <mxCell id="qy54ewY4zmLZA6wz8bQR-21" style="edgeStyle=orthogonalEdgeStyle;rounded=0;orthogonalLoop=1;jettySize=auto;html=1;entryX=0;entryY=0.5;entryDx=0;entryDy=0;" edge="1" parent="WIyWlLk6GJQsqaUBKTNV-1" source="qy54ewY4zmLZA6wz8bQR-18" target="qy54ewY4zmLZA6wz8bQR-20">
          <mxGeometry relative="1" as="geometry" />
        </mxCell>
        <mxCell id="qy54ewY4zmLZA6wz8bQR-18" value="Initialize instance of GameBoard class" style="rounded=1;whiteSpace=wrap;html=1;" vertex="1" parent="WIyWlLk6GJQsqaUBKTNV-1">
          <mxGeometry x="90" y="180" width="160" height="50" as="geometry" />
        </mxCell>
        <mxCell id="qy54ewY4zmLZA6wz8bQR-24" style="edgeStyle=orthogonalEdgeStyle;rounded=0;orthogonalLoop=1;jettySize=auto;html=1;" edge="1" parent="WIyWlLk6GJQsqaUBKTNV-1" source="qy54ewY4zmLZA6wz8bQR-20" target="qy54ewY4zmLZA6wz8bQR-22">
          <mxGeometry relative="1" as="geometry" />
        </mxCell>
        <mxCell id="qy54ewY4zmLZA6wz8bQR-20" value="Set scoreRow to random GameRow" style="rounded=1;whiteSpace=wrap;html=1;" vertex="1" parent="WIyWlLk6GJQsqaUBKTNV-1">
          <mxGeometry x="310" y="180" width="160" height="50" as="geometry" />
        </mxCell>
        <mxCell id="qy54ewY4zmLZA6wz8bQR-27" style="edgeStyle=orthogonalEdgeStyle;rounded=0;orthogonalLoop=1;jettySize=auto;html=1;entryX=1;entryY=0.5;entryDx=0;entryDy=0;" edge="1" parent="WIyWlLk6GJQsqaUBKTNV-1" source="qy54ewY4zmLZA6wz8bQR-22" target="qy54ewY4zmLZA6wz8bQR-26">
          <mxGeometry relative="1" as="geometry" />
        </mxCell>
        <mxCell id="qy54ewY4zmLZA6wz8bQR-22" value="drawGameboard() to display game to player" style="rounded=1;whiteSpace=wrap;html=1;arcSize=0;" vertex="1" parent="WIyWlLk6GJQsqaUBKTNV-1">
          <mxGeometry x="310" y="260" width="160" height="50" as="geometry" />
        </mxCell>
        <mxCell id="qy54ewY4zmLZA6wz8bQR-29" style="edgeStyle=orthogonalEdgeStyle;rounded=0;orthogonalLoop=1;jettySize=auto;html=1;" edge="1" parent="WIyWlLk6GJQsqaUBKTNV-1" source="qy54ewY4zmLZA6wz8bQR-26" target="qy54ewY4zmLZA6wz8bQR-28">
          <mxGeometry relative="1" as="geometry" />
        </mxCell>
        <mxCell id="qy54ewY4zmLZA6wz8bQR-26" value="Prompt player&lt;br&gt;for row input" style="shape=parallelogram;perimeter=parallelogramPerimeter;whiteSpace=wrap;html=1;fixedSize=1;" vertex="1" parent="WIyWlLk6GJQsqaUBKTNV-1">
          <mxGeometry x="110" y="255" width="120" height="60" as="geometry" />
        </mxCell>
        <mxCell id="qy54ewY4zmLZA6wz8bQR-32" style="edgeStyle=orthogonalEdgeStyle;rounded=0;orthogonalLoop=1;jettySize=auto;html=1;" edge="1" parent="WIyWlLk6GJQsqaUBKTNV-1" source="qy54ewY4zmLZA6wz8bQR-28" target="qy54ewY4zmLZA6wz8bQR-31">
          <mxGeometry relative="1" as="geometry" />
        </mxCell>
        <mxCell id="qy54ewY4zmLZA6wz8bQR-28" value="addTurnInformation() to update gameboard with player input" style="rounded=1;whiteSpace=wrap;html=1;arcSize=0;" vertex="1" parent="WIyWlLk6GJQsqaUBKTNV-1">
          <mxGeometry x="90" y="370" width="160" height="50" as="geometry" />
        </mxCell>
        <mxCell id="qy54ewY4zmLZA6wz8bQR-30" value="Input Recieved" style="text;html=1;strokeColor=none;fillColor=none;align=center;verticalAlign=middle;whiteSpace=wrap;rounded=0;" vertex="1" parent="WIyWlLk6GJQsqaUBKTNV-1">
          <mxGeometry x="190" y="330" width="40" height="20" as="geometry" />
        </mxCell>
        <mxCell id="qy54ewY4zmLZA6wz8bQR-35" style="edgeStyle=orthogonalEdgeStyle;rounded=0;orthogonalLoop=1;jettySize=auto;html=1;entryX=0.5;entryY=0;entryDx=0;entryDy=0;" edge="1" parent="WIyWlLk6GJQsqaUBKTNV-1" source="qy54ewY4zmLZA6wz8bQR-31" target="qy54ewY4zmLZA6wz8bQR-39">
          <mxGeometry relative="1" as="geometry">
            <mxPoint x="390" y="460" as="targetPoint" />
          </mxGeometry>
        </mxCell>
        <mxCell id="qy54ewY4zmLZA6wz8bQR-31" value="scoreRow() to check the score of the player&#39;s latest entry" style="rounded=1;whiteSpace=wrap;html=1;arcSize=0;" vertex="1" parent="WIyWlLk6GJQsqaUBKTNV-1">
          <mxGeometry x="310" y="370" width="160" height="50" as="geometry" />
        </mxCell>
        <mxCell id="qy54ewY4zmLZA6wz8bQR-53" style="edgeStyle=orthogonalEdgeStyle;rounded=0;orthogonalLoop=1;jettySize=auto;html=1;" edge="1" parent="WIyWlLk6GJQsqaUBKTNV-1" source="qy54ewY4zmLZA6wz8bQR-39" target="qy54ewY4zmLZA6wz8bQR-52">
          <mxGeometry relative="1" as="geometry" />
        </mxCell>
        <mxCell id="qy54ewY4zmLZA6wz8bQR-39" value="Score is a &lt;br&gt;winning score" style="rhombus;whiteSpace=wrap;html=1;" vertex="1" parent="WIyWlLk6GJQsqaUBKTNV-1">
          <mxGeometry x="330" y="550" width="120" height="100" as="geometry" />
        </mxCell>
        <mxCell id="qy54ewY4zmLZA6wz8bQR-41" value="False" style="text;html=1;strokeColor=none;fillColor=none;align=center;verticalAlign=middle;whiteSpace=wrap;rounded=0;" vertex="1" parent="WIyWlLk6GJQsqaUBKTNV-1">
          <mxGeometry x="280" y="565" width="40" height="20" as="geometry" />
        </mxCell>
        <mxCell id="qy54ewY4zmLZA6wz8bQR-44" style="edgeStyle=orthogonalEdgeStyle;rounded=0;orthogonalLoop=1;jettySize=auto;html=1;" edge="1" parent="WIyWlLk6GJQsqaUBKTNV-1" source="qy54ewY4zmLZA6wz8bQR-42" target="qy54ewY4zmLZA6wz8bQR-26">
          <mxGeometry relative="1" as="geometry">
            <mxPoint x="50" y="290" as="targetPoint" />
            <Array as="points">
              <mxPoint x="50" y="475" />
              <mxPoint x="50" y="285" />
            </Array>
          </mxGeometry>
        </mxCell>
        <mxCell id="qy54ewY4zmLZA6wz8bQR-42" value="drawGameboard() to display game to player" style="rounded=1;whiteSpace=wrap;html=1;arcSize=0;" vertex="1" parent="WIyWlLk6GJQsqaUBKTNV-1">
          <mxGeometry x="90" y="450" width="160" height="50" as="geometry" />
        </mxCell>
        <mxCell id="qy54ewY4zmLZA6wz8bQR-51" style="edgeStyle=orthogonalEdgeStyle;rounded=0;orthogonalLoop=1;jettySize=auto;html=1;entryX=0.5;entryY=0;entryDx=0;entryDy=0;" edge="1" parent="WIyWlLk6GJQsqaUBKTNV-1" source="qy54ewY4zmLZA6wz8bQR-46" target="qy54ewY4zmLZA6wz8bQR-50">
          <mxGeometry relative="1" as="geometry" />
        </mxCell>
        <mxCell id="qy54ewY4zmLZA6wz8bQR-46" value="drawGameboard() to display game to player" style="rounded=1;whiteSpace=wrap;html=1;arcSize=0;" vertex="1" parent="WIyWlLk6GJQsqaUBKTNV-1">
          <mxGeometry x="310" y="700" width="160" height="50" as="geometry" />
        </mxCell>
        <mxCell id="qy54ewY4zmLZA6wz8bQR-47" style="edgeStyle=orthogonalEdgeStyle;rounded=0;orthogonalLoop=1;jettySize=auto;html=1;entryX=0.5;entryY=0;entryDx=0;entryDy=0;exitX=0.5;exitY=1;exitDx=0;exitDy=0;" edge="1" parent="WIyWlLk6GJQsqaUBKTNV-1" source="qy54ewY4zmLZA6wz8bQR-39" target="qy54ewY4zmLZA6wz8bQR-46">
          <mxGeometry relative="1" as="geometry">
            <mxPoint x="390" y="565" as="sourcePoint" />
            <mxPoint x="260" y="520" as="targetPoint" />
          </mxGeometry>
        </mxCell>
        <mxCell id="qy54ewY4zmLZA6wz8bQR-48" value="True" style="text;html=1;strokeColor=none;fillColor=none;align=center;verticalAlign=middle;whiteSpace=wrap;rounded=0;" vertex="1" parent="WIyWlLk6GJQsqaUBKTNV-1">
          <mxGeometry x="340" y="650" width="40" height="20" as="geometry" />
        </mxCell>
        <mxCell id="qy54ewY4zmLZA6wz8bQR-65" style="edgeStyle=orthogonalEdgeStyle;rounded=0;orthogonalLoop=1;jettySize=auto;html=1;" edge="1" parent="WIyWlLk6GJQsqaUBKTNV-1" source="qy54ewY4zmLZA6wz8bQR-50" target="qy54ewY4zmLZA6wz8bQR-64">
          <mxGeometry relative="1" as="geometry" />
        </mxCell>
        <mxCell id="qy54ewY4zmLZA6wz8bQR-50" value="Display Winning Message" style="rounded=1;whiteSpace=wrap;html=1;" vertex="1" parent="WIyWlLk6GJQsqaUBKTNV-1">
          <mxGeometry x="300" y="785" width="180" height="50" as="geometry" />
        </mxCell>
        <mxCell id="qy54ewY4zmLZA6wz8bQR-54" style="edgeStyle=orthogonalEdgeStyle;rounded=0;orthogonalLoop=1;jettySize=auto;html=1;" edge="1" parent="WIyWlLk6GJQsqaUBKTNV-1" source="qy54ewY4zmLZA6wz8bQR-52" target="qy54ewY4zmLZA6wz8bQR-42">
          <mxGeometry relative="1" as="geometry" />
        </mxCell>
        <mxCell id="qy54ewY4zmLZA6wz8bQR-55" style="edgeStyle=orthogonalEdgeStyle;rounded=0;orthogonalLoop=1;jettySize=auto;html=1;entryX=0.5;entryY=0;entryDx=0;entryDy=0;" edge="1" parent="WIyWlLk6GJQsqaUBKTNV-1" source="qy54ewY4zmLZA6wz8bQR-52" target="qy54ewY4zmLZA6wz8bQR-59">
          <mxGeometry relative="1" as="geometry">
            <mxPoint x="170" y="690" as="targetPoint" />
          </mxGeometry>
        </mxCell>
        <mxCell id="qy54ewY4zmLZA6wz8bQR-52" value="attempts == 10" style="rhombus;whiteSpace=wrap;html=1;" vertex="1" parent="WIyWlLk6GJQsqaUBKTNV-1">
          <mxGeometry x="110" y="550" width="120" height="100" as="geometry" />
        </mxCell>
        <mxCell id="qy54ewY4zmLZA6wz8bQR-56" value="False" style="text;html=1;strokeColor=none;fillColor=none;align=center;verticalAlign=middle;whiteSpace=wrap;rounded=0;" vertex="1" parent="WIyWlLk6GJQsqaUBKTNV-1">
          <mxGeometry x="120" y="530" width="40" height="20" as="geometry" />
        </mxCell>
        <mxCell id="qy54ewY4zmLZA6wz8bQR-58" value="True" style="text;html=1;strokeColor=none;fillColor=none;align=center;verticalAlign=middle;whiteSpace=wrap;rounded=0;" vertex="1" parent="WIyWlLk6GJQsqaUBKTNV-1">
          <mxGeometry x="120" y="650" width="40" height="20" as="geometry" />
        </mxCell>
        <mxCell id="qy54ewY4zmLZA6wz8bQR-62" style="edgeStyle=orthogonalEdgeStyle;rounded=0;orthogonalLoop=1;jettySize=auto;html=1;entryX=0.5;entryY=0;entryDx=0;entryDy=0;" edge="1" parent="WIyWlLk6GJQsqaUBKTNV-1" source="qy54ewY4zmLZA6wz8bQR-59" target="qy54ewY4zmLZA6wz8bQR-60">
          <mxGeometry relative="1" as="geometry" />
        </mxCell>
        <mxCell id="qy54ewY4zmLZA6wz8bQR-59" value="drawGameboard() to display game to player" style="rounded=1;whiteSpace=wrap;html=1;arcSize=0;" vertex="1" parent="WIyWlLk6GJQsqaUBKTNV-1">
          <mxGeometry x="90" y="700" width="160" height="50" as="geometry" />
        </mxCell>
        <mxCell id="qy54ewY4zmLZA6wz8bQR-66" style="edgeStyle=orthogonalEdgeStyle;rounded=0;orthogonalLoop=1;jettySize=auto;html=1;" edge="1" parent="WIyWlLk6GJQsqaUBKTNV-1" source="qy54ewY4zmLZA6wz8bQR-60" target="qy54ewY4zmLZA6wz8bQR-63">
          <mxGeometry relative="1" as="geometry" />
        </mxCell>
        <mxCell id="qy54ewY4zmLZA6wz8bQR-60" value="Display Losing Message" style="rounded=1;whiteSpace=wrap;html=1;" vertex="1" parent="WIyWlLk6GJQsqaUBKTNV-1">
          <mxGeometry x="80" y="785" width="180" height="50" as="geometry" />
        </mxCell>
        <mxCell id="qy54ewY4zmLZA6wz8bQR-63" value="End" style="ellipse;whiteSpace=wrap;html=1;" vertex="1" parent="WIyWlLk6GJQsqaUBKTNV-1">
          <mxGeometry x="110" y="870" width="120" height="50" as="geometry" />
        </mxCell>
        <mxCell id="qy54ewY4zmLZA6wz8bQR-64" value="End" style="ellipse;whiteSpace=wrap;html=1;" vertex="1" parent="WIyWlLk6GJQsqaUBKTNV-1">
          <mxGeometry x="330" y="870" width="120" height="50" as="geometry" />
        </mxCell>
        <mxCell id="qy54ewY4zmLZA6wz8bQR-70" style="edgeStyle=orthogonalEdgeStyle;rounded=0;orthogonalLoop=1;jettySize=auto;html=1;entryX=0.5;entryY=0;entryDx=0;entryDy=0;" edge="1" parent="WIyWlLk6GJQsqaUBKTNV-1" source="qy54ewY4zmLZA6wz8bQR-67">
          <mxGeometry relative="1" as="geometry">
            <mxPoint x="140" y="1330" as="targetPoint" />
          </mxGeometry>
        </mxCell>
        <mxCell id="qy54ewY4zmLZA6wz8bQR-5" value="GameRow" style="swimlane;fontStyle=1;align=center;verticalAlign=top;childLayout=stackLayout;horizontal=1;startSize=26;horizontalStack=0;resizeParent=1;resizeParentMax=0;resizeLast=0;collapsible=1;marginBottom=0;" vertex="1" parent="WIyWlLk6GJQsqaUBKTNV-1">
          <mxGeometry x="605" y="350" width="200" height="260" as="geometry" />
        </mxCell>
        <mxCell id="qy54ewY4zmLZA6wz8bQR-6" value="- row: Peg[]&#xa;- scoreWhite: int&#xa;- scoreBlack: int&#xa;- isScoreRow: bool" style="text;strokeColor=none;fillColor=none;align=left;verticalAlign=top;spacingLeft=4;spacingRight=4;overflow=hidden;rotatable=0;points=[[0,0.5],[1,0.5]];portConstraint=eastwest;" vertex="1" parent="qy54ewY4zmLZA6wz8bQR-5">
          <mxGeometry y="26" width="200" height="74" as="geometry" />
        </mxCell>
        <mxCell id="qy54ewY4zmLZA6wz8bQR-7" value="" style="line;strokeWidth=1;fillColor=none;align=left;verticalAlign=middle;spacingTop=-1;spacingLeft=3;spacingRight=3;rotatable=0;labelPosition=right;points=[];portConstraint=eastwest;" vertex="1" parent="qy54ewY4zmLZA6wz8bQR-5">
          <mxGeometry y="100" width="200" height="8" as="geometry" />
        </mxCell>
        <mxCell id="qy54ewY4zmLZA6wz8bQR-8" value="+ GameRow()&#xa;+ GameRow(bool)&#xa;+ GameRow(int, int, int, int)&#xa;+ GameRow(int, int, int, int, bool)&#xa;+ getGameRow(): int[]&#xa;+ setGameRow(int[]): void&#xa;+ setGamePiece(int, int): void&#xa;- checkScore(int[]): void&#xa;+ getScore(): int[]&#xa;+ clearGameRow(): void&#xa;" style="text;strokeColor=none;fillColor=none;align=left;verticalAlign=top;spacingLeft=4;spacingRight=4;overflow=hidden;rotatable=0;points=[[0,0.5],[1,0.5]];portConstraint=eastwest;" vertex="1" parent="qy54ewY4zmLZA6wz8bQR-5">
          <mxGeometry y="108" width="200" height="152" as="geometry" />
        </mxCell>
        <mxCell id="qy54ewY4zmLZA6wz8bQR-67" value="Function Call" style="ellipse;whiteSpace=wrap;html=1;" vertex="1" parent="WIyWlLk6GJQsqaUBKTNV-1">
          <mxGeometry x="80" y="1250" width="120" height="50" as="geometry" />
        </mxCell>
        <mxCell id="qy54ewY4zmLZA6wz8bQR-69" value="&lt;font style=&quot;font-size: 14px&quot;&gt;drawGameboard() Function&lt;/font&gt;" style="text;html=1;strokeColor=none;fillColor=none;align=center;verticalAlign=middle;whiteSpace=wrap;rounded=0;fontStyle=1" vertex="1" parent="WIyWlLk6GJQsqaUBKTNV-1">
          <mxGeometry x="20" y="1190" width="240" height="50" as="geometry" />
        </mxCell>
        <mxCell id="qy54ewY4zmLZA6wz8bQR-73" style="edgeStyle=orthogonalEdgeStyle;rounded=0;orthogonalLoop=1;jettySize=auto;html=1;entryX=0;entryY=0.5;entryDx=0;entryDy=0;" edge="1" parent="WIyWlLk6GJQsqaUBKTNV-1" source="qy54ewY4zmLZA6wz8bQR-71" target="qy54ewY4zmLZA6wz8bQR-72">
          <mxGeometry relative="1" as="geometry" />
        </mxCell>
        <mxCell id="qy54ewY4zmLZA6wz8bQR-71" value="Create temporary string to hold gameboard text" style="rounded=1;whiteSpace=wrap;html=1;" vertex="1" parent="WIyWlLk6GJQsqaUBKTNV-1">
          <mxGeometry x="50" y="1330" width="180" height="50" as="geometry" />
        </mxCell>
        <mxCell id="qy54ewY4zmLZA6wz8bQR-81" style="edgeStyle=orthogonalEdgeStyle;rounded=0;orthogonalLoop=1;jettySize=auto;html=1;entryX=0.5;entryY=0;entryDx=0;entryDy=0;" edge="1" parent="WIyWlLk6GJQsqaUBKTNV-1" source="qy54ewY4zmLZA6wz8bQR-72" target="qy54ewY4zmLZA6wz8bQR-76">
          <mxGeometry relative="1" as="geometry" />
        </mxCell>
        <mxCell id="qy54ewY4zmLZA6wz8bQR-72" value="Loop through boardContents to get board data" style="rounded=1;whiteSpace=wrap;html=1;" vertex="1" parent="WIyWlLk6GJQsqaUBKTNV-1">
          <mxGeometry x="290" y="1330" width="180" height="50" as="geometry" />
        </mxCell>
        <mxCell id="qy54ewY4zmLZA6wz8bQR-74" value="&lt;h1&gt;Main Flow Chart&lt;/h1&gt;" style="text;html=1;strokeColor=none;fillColor=none;spacing=5;spacingTop=-20;whiteSpace=wrap;overflow=hidden;rounded=0;align=center;" vertex="1" parent="WIyWlLk6GJQsqaUBKTNV-1">
          <mxGeometry x="30" y="20" width="340" height="40" as="geometry" />
        </mxCell>
        <mxCell id="qy54ewY4zmLZA6wz8bQR-80" style="edgeStyle=orthogonalEdgeStyle;rounded=0;orthogonalLoop=1;jettySize=auto;html=1;" edge="1" parent="WIyWlLk6GJQsqaUBKTNV-1" source="qy54ewY4zmLZA6wz8bQR-76" target="qy54ewY4zmLZA6wz8bQR-79">
          <mxGeometry relative="1" as="geometry" />
        </mxCell>
        <mxCell id="qy54ewY4zmLZA6wz8bQR-94" style="edgeStyle=orthogonalEdgeStyle;rounded=0;orthogonalLoop=1;jettySize=auto;html=1;entryX=1;entryY=0.5;entryDx=0;entryDy=0;" edge="1" parent="WIyWlLk6GJQsqaUBKTNV-1" source="qy54ewY4zmLZA6wz8bQR-76" target="qy54ewY4zmLZA6wz8bQR-92">
          <mxGeometry relative="1" as="geometry">
            <Array as="points">
              <mxPoint x="580" y="1635" />
            </Array>
          </mxGeometry>
        </mxCell>
        <mxCell id="qy54ewY4zmLZA6wz8bQR-76" value="i &amp;lt; 10" style="rhombus;whiteSpace=wrap;html=1;" vertex="1" parent="WIyWlLk6GJQsqaUBKTNV-1">
          <mxGeometry x="540" y="1500" width="80" height="80" as="geometry" />
        </mxCell>
        <mxCell id="qy54ewY4zmLZA6wz8bQR-84" style="edgeStyle=orthogonalEdgeStyle;rounded=0;orthogonalLoop=1;jettySize=auto;html=1;entryX=1;entryY=0.5;entryDx=0;entryDy=0;" edge="1" parent="WIyWlLk6GJQsqaUBKTNV-1" source="qy54ewY4zmLZA6wz8bQR-79" target="qy54ewY4zmLZA6wz8bQR-82">
          <mxGeometry relative="1" as="geometry" />
        </mxCell>
        <mxCell id="qy54ewY4zmLZA6wz8bQR-79" value="getGameRow() from GameRow instance at position i&lt;br&gt;in boardContents" style="rounded=1;whiteSpace=wrap;html=1;" vertex="1" parent="WIyWlLk6GJQsqaUBKTNV-1">
          <mxGeometry x="290" y="1515" width="180" height="50" as="geometry" />
        </mxCell>
        <mxCell id="qy54ewY4zmLZA6wz8bQR-85" style="edgeStyle=orthogonalEdgeStyle;rounded=0;orthogonalLoop=1;jettySize=auto;html=1;" edge="1" parent="WIyWlLk6GJQsqaUBKTNV-1" source="qy54ewY4zmLZA6wz8bQR-82" target="qy54ewY4zmLZA6wz8bQR-83">
          <mxGeometry relative="1" as="geometry" />
        </mxCell>
        <mxCell id="qy54ewY4zmLZA6wz8bQR-82" value="getScore() from GameRow instance at position i&lt;br&gt;in boardContents" style="rounded=1;whiteSpace=wrap;html=1;" vertex="1" parent="WIyWlLk6GJQsqaUBKTNV-1">
          <mxGeometry x="50" y="1515" width="180" height="50" as="geometry" />
        </mxCell>
        <mxCell id="qy54ewY4zmLZA6wz8bQR-93" style="edgeStyle=orthogonalEdgeStyle;rounded=0;orthogonalLoop=1;jettySize=auto;html=1;entryX=0;entryY=0.5;entryDx=0;entryDy=0;" edge="1" parent="WIyWlLk6GJQsqaUBKTNV-1" source="qy54ewY4zmLZA6wz8bQR-83" target="qy54ewY4zmLZA6wz8bQR-87">
          <mxGeometry relative="1" as="geometry" />
        </mxCell>
        <mxCell id="qy54ewY4zmLZA6wz8bQR-83" value="Add ASCII boarders mimicking game to string" style="rounded=1;whiteSpace=wrap;html=1;" vertex="1" parent="WIyWlLk6GJQsqaUBKTNV-1">
          <mxGeometry x="50" y="1420" width="180" height="50" as="geometry" />
        </mxCell>
        <mxCell id="qy54ewY4zmLZA6wz8bQR-127" style="edgeStyle=orthogonalEdgeStyle;rounded=0;orthogonalLoop=1;jettySize=auto;html=1;entryX=0;entryY=0.5;entryDx=0;entryDy=0;" edge="1" parent="WIyWlLk6GJQsqaUBKTNV-1" source="qy54ewY4zmLZA6wz8bQR-87" target="qy54ewY4zmLZA6wz8bQR-126">
          <mxGeometry relative="1" as="geometry" />
        </mxCell>
        <mxCell id="qy54ewY4zmLZA6wz8bQR-87" value="Add peg and score data in between ASCII boarders" style="rounded=1;whiteSpace=wrap;html=1;" vertex="1" parent="WIyWlLk6GJQsqaUBKTNV-1">
          <mxGeometry x="290" y="1420" width="180" height="50" as="geometry" />
        </mxCell>
        <mxCell id="qy54ewY4zmLZA6wz8bQR-90" value="False" style="text;html=1;strokeColor=none;fillColor=none;align=center;verticalAlign=middle;whiteSpace=wrap;rounded=0;" vertex="1" parent="WIyWlLk6GJQsqaUBKTNV-1">
          <mxGeometry x="490" y="1515" width="40" height="20" as="geometry" />
        </mxCell>
        <mxCell id="qy54ewY4zmLZA6wz8bQR-96" style="edgeStyle=orthogonalEdgeStyle;rounded=0;orthogonalLoop=1;jettySize=auto;html=1;entryX=1;entryY=0.5;entryDx=0;entryDy=0;" edge="1" parent="WIyWlLk6GJQsqaUBKTNV-1" source="qy54ewY4zmLZA6wz8bQR-92" target="qy54ewY4zmLZA6wz8bQR-97">
          <mxGeometry relative="1" as="geometry">
            <mxPoint x="230" y="1635" as="targetPoint" />
          </mxGeometry>
        </mxCell>
        <mxCell id="qy54ewY4zmLZA6wz8bQR-92" value="Add top and bottom boarders with ASCII to gameboard" style="rounded=1;whiteSpace=wrap;html=1;" vertex="1" parent="WIyWlLk6GJQsqaUBKTNV-1">
          <mxGeometry x="290" y="1610" width="180" height="50" as="geometry" />
        </mxCell>
        <mxCell id="qy54ewY4zmLZA6wz8bQR-97" value="&lt;span&gt;Return the temporary string to be printed to user&lt;/span&gt;" style="ellipse;whiteSpace=wrap;html=1;" vertex="1" parent="WIyWlLk6GJQsqaUBKTNV-1">
          <mxGeometry x="60" y="1595" width="160" height="80" as="geometry" />
        </mxCell>
        <mxCell id="qy54ewY4zmLZA6wz8bQR-98" style="edgeStyle=orthogonalEdgeStyle;rounded=0;orthogonalLoop=1;jettySize=auto;html=1;entryX=0.5;entryY=0;entryDx=0;entryDy=0;" edge="1" parent="WIyWlLk6GJQsqaUBKTNV-1" source="qy54ewY4zmLZA6wz8bQR-99">
          <mxGeometry relative="1" as="geometry">
            <mxPoint x="140" y="1870" as="targetPoint" />
          </mxGeometry>
        </mxCell>
        <mxCell id="qy54ewY4zmLZA6wz8bQR-99" value="Function Call" style="ellipse;whiteSpace=wrap;html=1;" vertex="1" parent="WIyWlLk6GJQsqaUBKTNV-1">
          <mxGeometry x="80" y="1790" width="120" height="50" as="geometry" />
        </mxCell>
        <mxCell id="qy54ewY4zmLZA6wz8bQR-100" value="&lt;font style=&quot;font-size: 14px&quot;&gt;scoreRow() Function&lt;/font&gt;" style="text;html=1;strokeColor=none;fillColor=none;align=center;verticalAlign=middle;whiteSpace=wrap;rounded=0;fontStyle=1" vertex="1" parent="WIyWlLk6GJQsqaUBKTNV-1">
          <mxGeometry x="20" y="1730" width="240" height="50" as="geometry" />
        </mxCell>
        <mxCell id="qy54ewY4zmLZA6wz8bQR-101" style="edgeStyle=orthogonalEdgeStyle;rounded=0;orthogonalLoop=1;jettySize=auto;html=1;entryX=0;entryY=0.5;entryDx=0;entryDy=0;" edge="1" parent="WIyWlLk6GJQsqaUBKTNV-1" source="qy54ewY4zmLZA6wz8bQR-102" target="qy54ewY4zmLZA6wz8bQR-104">
          <mxGeometry relative="1" as="geometry" />
        </mxCell>
        <mxCell id="qy54ewY4zmLZA6wz8bQR-102" value="Initialize temporary integers to store white and black score pegs count, and score row color count" style="rounded=1;whiteSpace=wrap;html=1;" vertex="1" parent="WIyWlLk6GJQsqaUBKTNV-1">
          <mxGeometry x="50" y="1870" width="180" height="50" as="geometry" />
        </mxCell>
        <mxCell id="qy54ewY4zmLZA6wz8bQR-103" style="edgeStyle=orthogonalEdgeStyle;rounded=0;orthogonalLoop=1;jettySize=auto;html=1;entryX=0.5;entryY=0;entryDx=0;entryDy=0;" edge="1" parent="WIyWlLk6GJQsqaUBKTNV-1" source="qy54ewY4zmLZA6wz8bQR-104" target="qy54ewY4zmLZA6wz8bQR-107">
          <mxGeometry relative="1" as="geometry" />
        </mxCell>
        <mxCell id="qy54ewY4zmLZA6wz8bQR-104" value="Loop through Peg data in row[]&lt;br&gt;to get black peg score data" style="rounded=1;whiteSpace=wrap;html=1;" vertex="1" parent="WIyWlLk6GJQsqaUBKTNV-1">
          <mxGeometry x="290" y="1870" width="180" height="50" as="geometry" />
        </mxCell>
        <mxCell id="qy54ewY4zmLZA6wz8bQR-105" style="edgeStyle=orthogonalEdgeStyle;rounded=0;orthogonalLoop=1;jettySize=auto;html=1;" edge="1" parent="WIyWlLk6GJQsqaUBKTNV-1" source="qy54ewY4zmLZA6wz8bQR-107">
          <mxGeometry relative="1" as="geometry">
            <mxPoint x="470" y="2040" as="targetPoint" />
          </mxGeometry>
        </mxCell>
        <mxCell id="qy54ewY4zmLZA6wz8bQR-107" value="i &amp;lt; 4" style="rhombus;whiteSpace=wrap;html=1;" vertex="1" parent="WIyWlLk6GJQsqaUBKTNV-1">
          <mxGeometry x="540" y="2000" width="80" height="80" as="geometry" />
        </mxCell>
        <mxCell id="qy54ewY4zmLZA6wz8bQR-108" style="edgeStyle=orthogonalEdgeStyle;rounded=0;orthogonalLoop=1;jettySize=auto;html=1;entryX=1;entryY=0.5;entryDx=0;entryDy=0;" edge="1" parent="WIyWlLk6GJQsqaUBKTNV-1" target="qy54ewY4zmLZA6wz8bQR-111">
          <mxGeometry relative="1" as="geometry">
            <mxPoint x="290" y="2040" as="sourcePoint" />
          </mxGeometry>
        </mxCell>
        <mxCell id="qy54ewY4zmLZA6wz8bQR-125" style="edgeStyle=orthogonalEdgeStyle;rounded=0;orthogonalLoop=1;jettySize=auto;html=1;" edge="1" parent="WIyWlLk6GJQsqaUBKTNV-1" source="qy54ewY4zmLZA6wz8bQR-111">
          <mxGeometry relative="1" as="geometry">
            <mxPoint x="380" y="1960" as="targetPoint" />
            <Array as="points">
              <mxPoint x="140" y="1960" />
            </Array>
          </mxGeometry>
        </mxCell>
        <mxCell id="qy54ewY4zmLZA6wz8bQR-111" value="Add one to black score variable" style="rounded=1;whiteSpace=wrap;html=1;" vertex="1" parent="WIyWlLk6GJQsqaUBKTNV-1">
          <mxGeometry x="50" y="2015" width="180" height="50" as="geometry" />
        </mxCell>
        <mxCell id="qy54ewY4zmLZA6wz8bQR-112" style="edgeStyle=orthogonalEdgeStyle;rounded=0;orthogonalLoop=1;jettySize=auto;html=1;entryX=0;entryY=0.5;entryDx=0;entryDy=0;" edge="1" parent="WIyWlLk6GJQsqaUBKTNV-1" source="qy54ewY4zmLZA6wz8bQR-113">
          <mxGeometry relative="1" as="geometry">
            <mxPoint x="290" y="1985" as="targetPoint" />
          </mxGeometry>
        </mxCell>
        <mxCell id="qy54ewY4zmLZA6wz8bQR-116" value="False" style="text;html=1;strokeColor=none;fillColor=none;align=center;verticalAlign=middle;whiteSpace=wrap;rounded=0;" vertex="1" parent="WIyWlLk6GJQsqaUBKTNV-1">
          <mxGeometry x="490" y="2015" width="40" height="20" as="geometry" />
        </mxCell>
        <mxCell id="qy54ewY4zmLZA6wz8bQR-119" value="&lt;span&gt;Return array of intagers with white and&lt;br&gt;black score and set scoreWhite and &lt;br&gt;scoreBlack to their respective values&lt;br&gt;&lt;/span&gt;" style="ellipse;whiteSpace=wrap;html=1;" vertex="1" parent="WIyWlLk6GJQsqaUBKTNV-1">
          <mxGeometry x="50" y="2672.5" width="250" height="105" as="geometry" />
        </mxCell>
        <mxCell id="qy54ewY4zmLZA6wz8bQR-120" value="True" style="text;html=1;strokeColor=none;fillColor=none;align=center;verticalAlign=middle;whiteSpace=wrap;rounded=0;" vertex="1" parent="WIyWlLk6GJQsqaUBKTNV-1">
          <mxGeometry x="530" y="1590" width="40" height="20" as="geometry" />
        </mxCell>
        <mxCell id="qy54ewY4zmLZA6wz8bQR-133" style="edgeStyle=orthogonalEdgeStyle;rounded=0;orthogonalLoop=1;jettySize=auto;html=1;entryX=0;entryY=0.5;entryDx=0;entryDy=0;" edge="1" parent="WIyWlLk6GJQsqaUBKTNV-1" source="qy54ewY4zmLZA6wz8bQR-121" target="qy54ewY4zmLZA6wz8bQR-129">
          <mxGeometry relative="1" as="geometry">
            <Array as="points">
              <mxPoint x="380" y="2040" />
              <mxPoint x="380" y="1960" />
            </Array>
          </mxGeometry>
        </mxCell>
        <mxCell id="qy54ewY4zmLZA6wz8bQR-121" value="&lt;span&gt;Peg at i == winning row at i&lt;/span&gt;" style="rhombus;whiteSpace=wrap;html=1;" vertex="1" parent="WIyWlLk6GJQsqaUBKTNV-1">
          <mxGeometry x="290" y="1990" width="180" height="100" as="geometry" />
        </mxCell>
        <mxCell id="qy54ewY4zmLZA6wz8bQR-123" value="False" style="text;html=1;strokeColor=none;fillColor=none;align=center;verticalAlign=middle;whiteSpace=wrap;rounded=0;" vertex="1" parent="WIyWlLk6GJQsqaUBKTNV-1">
          <mxGeometry x="394" y="1970" width="40" height="20" as="geometry" />
        </mxCell>
        <mxCell id="qy54ewY4zmLZA6wz8bQR-124" value="True" style="text;html=1;strokeColor=none;fillColor=none;align=center;verticalAlign=middle;whiteSpace=wrap;rounded=0;" vertex="1" parent="WIyWlLk6GJQsqaUBKTNV-1">
          <mxGeometry x="240" y="2010" width="40" height="20" as="geometry" />
        </mxCell>
        <mxCell id="qy54ewY4zmLZA6wz8bQR-128" style="edgeStyle=orthogonalEdgeStyle;rounded=0;orthogonalLoop=1;jettySize=auto;html=1;" edge="1" parent="WIyWlLk6GJQsqaUBKTNV-1" source="qy54ewY4zmLZA6wz8bQR-126">
          <mxGeometry relative="1" as="geometry">
            <mxPoint x="580" y="1445" as="targetPoint" />
          </mxGeometry>
        </mxCell>
        <mxCell id="qy54ewY4zmLZA6wz8bQR-126" value="i++" style="rounded=1;whiteSpace=wrap;html=1;" vertex="1" parent="WIyWlLk6GJQsqaUBKTNV-1">
          <mxGeometry x="500" y="1420" width="40" height="50" as="geometry" />
        </mxCell>
        <mxCell id="qy54ewY4zmLZA6wz8bQR-134" style="edgeStyle=orthogonalEdgeStyle;rounded=0;orthogonalLoop=1;jettySize=auto;html=1;" edge="1" parent="WIyWlLk6GJQsqaUBKTNV-1" source="qy54ewY4zmLZA6wz8bQR-129">
          <mxGeometry relative="1" as="geometry">
            <mxPoint x="580" y="1960" as="targetPoint" />
          </mxGeometry>
        </mxCell>
        <mxCell id="qy54ewY4zmLZA6wz8bQR-129" value="i++" style="rounded=1;whiteSpace=wrap;html=1;" vertex="1" parent="WIyWlLk6GJQsqaUBKTNV-1">
          <mxGeometry x="490" y="1935" width="40" height="50" as="geometry" />
        </mxCell>
        <mxCell id="qy54ewY4zmLZA6wz8bQR-148" style="edgeStyle=orthogonalEdgeStyle;rounded=0;orthogonalLoop=1;jettySize=auto;html=1;entryX=0.5;entryY=0;entryDx=0;entryDy=0;" edge="1" parent="WIyWlLk6GJQsqaUBKTNV-1" source="qy54ewY4zmLZA6wz8bQR-135" target="qy54ewY4zmLZA6wz8bQR-138">
          <mxGeometry relative="1" as="geometry" />
        </mxCell>
        <mxCell id="qy54ewY4zmLZA6wz8bQR-135" value="Loop through Peg data in winningRow[]&lt;br&gt;to get white peg score data" style="rounded=1;whiteSpace=wrap;html=1;" vertex="1" parent="WIyWlLk6GJQsqaUBKTNV-1">
          <mxGeometry x="490" y="2120" width="180" height="50" as="geometry" />
        </mxCell>
        <mxCell id="qy54ewY4zmLZA6wz8bQR-136" style="edgeStyle=orthogonalEdgeStyle;rounded=0;orthogonalLoop=1;jettySize=auto;html=1;entryX=0.5;entryY=0;entryDx=0;entryDy=0;" edge="1" parent="WIyWlLk6GJQsqaUBKTNV-1" source="qy54ewY4zmLZA6wz8bQR-107" target="qy54ewY4zmLZA6wz8bQR-135">
          <mxGeometry relative="1" as="geometry">
            <Array as="points" />
            <mxPoint x="580" y="2080" as="sourcePoint" />
            <mxPoint x="580" y="2110" as="targetPoint" />
          </mxGeometry>
        </mxCell>
        <mxCell id="qy54ewY4zmLZA6wz8bQR-137" style="edgeStyle=orthogonalEdgeStyle;rounded=0;orthogonalLoop=1;jettySize=auto;html=1;entryX=1;entryY=0.5;entryDx=0;entryDy=0;" edge="1" parent="WIyWlLk6GJQsqaUBKTNV-1" source="qy54ewY4zmLZA6wz8bQR-138" target="qy54ewY4zmLZA6wz8bQR-149">
          <mxGeometry relative="1" as="geometry">
            <mxPoint x="470" y="2325" as="targetPoint" />
          </mxGeometry>
        </mxCell>
        <mxCell id="qy54ewY4zmLZA6wz8bQR-161" style="edgeStyle=orthogonalEdgeStyle;rounded=0;orthogonalLoop=1;jettySize=auto;html=1;entryX=0.5;entryY=0;entryDx=0;entryDy=0;" edge="1" parent="WIyWlLk6GJQsqaUBKTNV-1" source="qy54ewY4zmLZA6wz8bQR-138" target="qy54ewY4zmLZA6wz8bQR-155">
          <mxGeometry relative="1" as="geometry" />
        </mxCell>
        <mxCell id="qy54ewY4zmLZA6wz8bQR-138" value="i &amp;lt; 4" style="rhombus;whiteSpace=wrap;html=1;" vertex="1" parent="WIyWlLk6GJQsqaUBKTNV-1">
          <mxGeometry x="540" y="2285" width="80" height="80" as="geometry" />
        </mxCell>
        <mxCell id="qy54ewY4zmLZA6wz8bQR-142" value="False" style="text;html=1;strokeColor=none;fillColor=none;align=center;verticalAlign=middle;whiteSpace=wrap;rounded=0;" vertex="1" parent="WIyWlLk6GJQsqaUBKTNV-1">
          <mxGeometry x="490" y="2300" width="40" height="20" as="geometry" />
        </mxCell>
        <mxCell id="qy54ewY4zmLZA6wz8bQR-146" style="edgeStyle=orthogonalEdgeStyle;rounded=0;orthogonalLoop=1;jettySize=auto;html=1;" edge="1" parent="WIyWlLk6GJQsqaUBKTNV-1" source="qy54ewY4zmLZA6wz8bQR-147">
          <mxGeometry relative="1" as="geometry">
            <mxPoint x="580" y="2245" as="targetPoint" />
          </mxGeometry>
        </mxCell>
        <mxCell id="qy54ewY4zmLZA6wz8bQR-147" value="i++" style="rounded=1;whiteSpace=wrap;html=1;" vertex="1" parent="WIyWlLk6GJQsqaUBKTNV-1">
          <mxGeometry x="490" y="2220" width="40" height="50" as="geometry" />
        </mxCell>
        <mxCell id="qy54ewY4zmLZA6wz8bQR-153" style="edgeStyle=orthogonalEdgeStyle;rounded=0;orthogonalLoop=1;jettySize=auto;html=1;exitX=0.5;exitY=0;exitDx=0;exitDy=0;entryX=0;entryY=0.5;entryDx=0;entryDy=0;" edge="1" parent="WIyWlLk6GJQsqaUBKTNV-1" source="qy54ewY4zmLZA6wz8bQR-149" target="qy54ewY4zmLZA6wz8bQR-147">
          <mxGeometry relative="1" as="geometry" />
        </mxCell>
        <mxCell id="qy54ewY4zmLZA6wz8bQR-149" value="For current color, add one to the corresponding color count variable" style="rounded=1;whiteSpace=wrap;html=1;" vertex="1" parent="WIyWlLk6GJQsqaUBKTNV-1">
          <mxGeometry x="230" y="2300" width="180" height="50" as="geometry" />
        </mxCell>
        <mxCell id="qy54ewY4zmLZA6wz8bQR-154" style="edgeStyle=orthogonalEdgeStyle;rounded=0;orthogonalLoop=1;jettySize=auto;html=1;entryX=0.5;entryY=0;entryDx=0;entryDy=0;" edge="1" parent="WIyWlLk6GJQsqaUBKTNV-1" source="qy54ewY4zmLZA6wz8bQR-155" target="qy54ewY4zmLZA6wz8bQR-157">
          <mxGeometry relative="1" as="geometry" />
        </mxCell>
        <mxCell id="qy54ewY4zmLZA6wz8bQR-155" value="Loop through Peg data in row[]&lt;br&gt;to get white peg score data" style="rounded=1;whiteSpace=wrap;html=1;" vertex="1" parent="WIyWlLk6GJQsqaUBKTNV-1">
          <mxGeometry x="490" y="2400" width="180" height="50" as="geometry" />
        </mxCell>
        <mxCell id="qy54ewY4zmLZA6wz8bQR-156" style="edgeStyle=orthogonalEdgeStyle;rounded=0;orthogonalLoop=1;jettySize=auto;html=1;entryX=1;entryY=0.5;entryDx=0;entryDy=0;" edge="1" parent="WIyWlLk6GJQsqaUBKTNV-1" source="qy54ewY4zmLZA6wz8bQR-157">
          <mxGeometry relative="1" as="geometry">
            <mxPoint x="410" y="2604.9999999999995" as="targetPoint" />
          </mxGeometry>
        </mxCell>
        <mxCell id="qy54ewY4zmLZA6wz8bQR-174" style="edgeStyle=orthogonalEdgeStyle;rounded=0;orthogonalLoop=1;jettySize=auto;html=1;entryX=0.5;entryY=0;entryDx=0;entryDy=0;" edge="1" parent="WIyWlLk6GJQsqaUBKTNV-1" source="qy54ewY4zmLZA6wz8bQR-157" target="qy54ewY4zmLZA6wz8bQR-173">
          <mxGeometry relative="1" as="geometry" />
        </mxCell>
        <mxCell id="qy54ewY4zmLZA6wz8bQR-157" value="i &amp;lt; 4" style="rhombus;whiteSpace=wrap;html=1;" vertex="1" parent="WIyWlLk6GJQsqaUBKTNV-1">
          <mxGeometry x="540" y="2565" width="80" height="80" as="geometry" />
        </mxCell>
        <mxCell id="qy54ewY4zmLZA6wz8bQR-158" style="edgeStyle=orthogonalEdgeStyle;rounded=0;orthogonalLoop=1;jettySize=auto;html=1;" edge="1" parent="WIyWlLk6GJQsqaUBKTNV-1">
          <mxGeometry relative="1" as="geometry">
            <mxPoint x="580" y="2499.9999999999995" as="targetPoint" />
            <mxPoint x="530" y="2499.9999999999995" as="sourcePoint" />
          </mxGeometry>
        </mxCell>
        <mxCell id="qy54ewY4zmLZA6wz8bQR-159" value="i++" style="rounded=1;whiteSpace=wrap;html=1;" vertex="1" parent="WIyWlLk6GJQsqaUBKTNV-1">
          <mxGeometry x="490" y="2475" width="40" height="50" as="geometry" />
        </mxCell>
        <mxCell id="qy54ewY4zmLZA6wz8bQR-168" style="edgeStyle=orthogonalEdgeStyle;rounded=0;orthogonalLoop=1;jettySize=auto;html=1;entryX=0.5;entryY=1;entryDx=0;entryDy=0;exitX=0;exitY=0.5;exitDx=0;exitDy=0;" edge="1" parent="WIyWlLk6GJQsqaUBKTNV-1" source="qy54ewY4zmLZA6wz8bQR-163" target="qy54ewY4zmLZA6wz8bQR-167">
          <mxGeometry relative="1" as="geometry">
            <Array as="points">
              <mxPoint x="150" y="2605" />
            </Array>
          </mxGeometry>
        </mxCell>
        <mxCell id="qy54ewY4zmLZA6wz8bQR-171" style="edgeStyle=orthogonalEdgeStyle;rounded=0;orthogonalLoop=1;jettySize=auto;html=1;" edge="1" parent="WIyWlLk6GJQsqaUBKTNV-1" source="qy54ewY4zmLZA6wz8bQR-163">
          <mxGeometry relative="1" as="geometry">
            <mxPoint x="325" y="2500" as="targetPoint" />
          </mxGeometry>
        </mxCell>
        <mxCell id="qy54ewY4zmLZA6wz8bQR-163" value="if current&lt;br&gt;peg color&#39;s corresponding variable is &amp;gt; 0" style="rhombus;whiteSpace=wrap;html=1;" vertex="1" parent="WIyWlLk6GJQsqaUBKTNV-1">
          <mxGeometry x="240" y="2542.5" width="170" height="125" as="geometry" />
        </mxCell>
        <mxCell id="qy54ewY4zmLZA6wz8bQR-164" value="True" style="text;html=1;strokeColor=none;fillColor=none;align=center;verticalAlign=middle;whiteSpace=wrap;rounded=0;" vertex="1" parent="WIyWlLk6GJQsqaUBKTNV-1">
          <mxGeometry x="530" y="2365" width="40" height="20" as="geometry" />
        </mxCell>
        <mxCell id="qy54ewY4zmLZA6wz8bQR-165" value="True" style="text;html=1;strokeColor=none;fillColor=none;align=center;verticalAlign=middle;whiteSpace=wrap;rounded=0;" vertex="1" parent="WIyWlLk6GJQsqaUBKTNV-1">
          <mxGeometry x="530" y="2647.5" width="40" height="20" as="geometry" />
        </mxCell>
        <mxCell id="qy54ewY4zmLZA6wz8bQR-166" value="True" style="text;html=1;strokeColor=none;fillColor=none;align=center;verticalAlign=middle;whiteSpace=wrap;rounded=0;" vertex="1" parent="WIyWlLk6GJQsqaUBKTNV-1">
          <mxGeometry x="530" y="2080" width="40" height="20" as="geometry" />
        </mxCell>
        <mxCell id="qy54ewY4zmLZA6wz8bQR-170" style="edgeStyle=orthogonalEdgeStyle;rounded=0;orthogonalLoop=1;jettySize=auto;html=1;entryX=0;entryY=0.5;entryDx=0;entryDy=0;" edge="1" parent="WIyWlLk6GJQsqaUBKTNV-1" source="qy54ewY4zmLZA6wz8bQR-167">
          <mxGeometry relative="1" as="geometry">
            <mxPoint x="490" y="2500" as="targetPoint" />
          </mxGeometry>
        </mxCell>
        <mxCell id="qy54ewY4zmLZA6wz8bQR-167" value="Add one to white peg count&amp;nbsp;" style="rounded=1;whiteSpace=wrap;html=1;" vertex="1" parent="WIyWlLk6GJQsqaUBKTNV-1">
          <mxGeometry x="60" y="2475" width="180" height="50" as="geometry" />
        </mxCell>
        <mxCell id="qy54ewY4zmLZA6wz8bQR-169" value="True" style="text;html=1;strokeColor=none;fillColor=none;align=center;verticalAlign=middle;whiteSpace=wrap;rounded=0;" vertex="1" parent="WIyWlLk6GJQsqaUBKTNV-1">
          <mxGeometry x="200" y="2570" width="40" height="20" as="geometry" />
        </mxCell>
        <mxCell id="qy54ewY4zmLZA6wz8bQR-172" value="False" style="text;html=1;strokeColor=none;fillColor=none;align=center;verticalAlign=middle;whiteSpace=wrap;rounded=0;" vertex="1" parent="WIyWlLk6GJQsqaUBKTNV-1">
          <mxGeometry x="280" y="2522.5" width="40" height="20" as="geometry" />
        </mxCell>
        <mxCell id="qy54ewY4zmLZA6wz8bQR-175" style="edgeStyle=orthogonalEdgeStyle;rounded=0;orthogonalLoop=1;jettySize=auto;html=1;" edge="1" parent="WIyWlLk6GJQsqaUBKTNV-1" source="qy54ewY4zmLZA6wz8bQR-173" target="qy54ewY4zmLZA6wz8bQR-119">
          <mxGeometry relative="1" as="geometry" />
        </mxCell>
        <mxCell id="qy54ewY4zmLZA6wz8bQR-173" value="White peg count = white peg count - black peg count" style="rounded=1;whiteSpace=wrap;html=1;" vertex="1" parent="WIyWlLk6GJQsqaUBKTNV-1">
          <mxGeometry x="490" y="2700" width="180" height="50" as="geometry" />
        </mxCell>
        <mxCell id="qy54ewY4zmLZA6wz8bQR-176" value="Loop 2" style="text;html=1;strokeColor=none;fillColor=none;align=center;verticalAlign=middle;whiteSpace=wrap;rounded=0;" vertex="1" parent="WIyWlLk6GJQsqaUBKTNV-1">
          <mxGeometry x="690" y="2135" width="40" height="20" as="geometry" />
        </mxCell>
        <mxCell id="qy54ewY4zmLZA6wz8bQR-177" value="Loop 3" style="text;html=1;strokeColor=none;fillColor=none;align=center;verticalAlign=middle;whiteSpace=wrap;rounded=0;" vertex="1" parent="WIyWlLk6GJQsqaUBKTNV-1">
          <mxGeometry x="690" y="2414" width="40" height="20" as="geometry" />
        </mxCell>
        <mxCell id="qy54ewY4zmLZA6wz8bQR-178" value="Loop 1" style="text;html=1;strokeColor=none;fillColor=none;align=center;verticalAlign=middle;whiteSpace=wrap;rounded=0;" vertex="1" parent="WIyWlLk6GJQsqaUBKTNV-1">
          <mxGeometry x="360" y="1850" width="40" height="20" as="geometry" />
        </mxCell>
        <mxCell id="qy54ewY4zmLZA6wz8bQR-179" value="Loop 1" style="text;html=1;strokeColor=none;fillColor=none;align=center;verticalAlign=middle;whiteSpace=wrap;rounded=0;" vertex="1" parent="WIyWlLk6GJQsqaUBKTNV-1">
          <mxGeometry x="354" y="1310" width="40" height="20" as="geometry" />
        </mxCell>
        <mxCell id="qy54ewY4zmLZA6wz8bQR-180" value="&lt;h1&gt;&lt;span style=&quot;text-align: left ; font-size: 12px ; font-weight: normal&quot;&gt;Work by Ryan Kotrosa&lt;/span&gt;&lt;br&gt;&lt;/h1&gt;&lt;div&gt;&lt;p style=&quot;text-align: left&quot;&gt;This is a flow chart used in the mastermind program.&lt;/p&gt;&lt;/div&gt;" style="text;html=1;strokeColor=none;fillColor=none;spacing=5;spacingTop=-20;whiteSpace=wrap;overflow=hidden;rounded=0;align=center;" vertex="1" parent="WIyWlLk6GJQsqaUBKTNV-1">
          <mxGeometry x="360" y="10" width="180" height="130" as="geometry" />
        </mxCell>
      </root>
    </mxGraphModel>
  </diagram>
</mxfile>
